<svg width="1245" height="290" viewBox="0 0 1245 290" fill="none" xmlns="http://www.w3.org/2000/svg">
<path fill-rule="evenodd" clip-rule="evenodd" d="M0 65.3458H26C52 65.3458 104 65.3458 156 46.3458C208 27.3458 259 -9.65423 311 2.34577C363 15.3458 415 77.3458 467 102.346C519 127.346 571 114.346 623 90.3458C674 65.3458 726 27.3458 778 46.3458C830 65.3458 882 139.346 934 139.346C986 139.346 1038 65.3458 1089 52.3458C1141 40.3458 1193 90.3458 1219 114.346L1245 139.346V289.346H1219C1193 289.346 1141 289.346 1089 289.346C1038 289.346 986 289.346 934 289.346C882 289.346 830 289.346 778 289.346C726 289.346 674 289.346 623 289.346C571 289.346 519 289.346 467 289.346C415 289.346 363 289.346 311 289.346C259 289.346 208 289.346 156 289.346C104 289.346 52 289.346 26 289.346H0V65.3458Z" fill="#009285"/>
</svg>
