<svg width="1245" height="284" viewBox="0 0 1245 284" fill="none" xmlns="http://www.w3.org/2000/svg">
<path fill-rule="evenodd" clip-rule="evenodd" d="M1245 284L1210 260.277C1176 236.555 1107 189.109 1037 166.336C968 142.613 899 142.613 830 166.336C761 189.109 692 236.555 622 243.197C553 248.891 484 212.832 415 201.445C346 189.109 277 201.445 207 195.752C138 189.109 69 166.336 35 154L0 142.613V0.277374H35C69 0.277374 138 0.277374 207 0.277374C277 0.277374 346 0.277374 415 0.277374C484 0.277374 553 0.277374 622 0.277374C692 0.277374 761 0.277374 830 0.277374C899 0.277374 968 0.277374 1037 0.277374C1107 0.277374 1176 0.277374 1210 0.277374H1245V284Z" fill="#9082E1"/>
</svg>
